<svg version="1.2" xmlns="http://www.w3.org/2000/svg" viewBox="0 0 256 194" width="256" height="194"><defs><clipPath clipPathUnits="userSpaceOnUse" id="cp1"><path d="m-832-147h1920v990h-1920z"/></clipPath><linearGradient id="P" gradientUnits="userSpaceOnUse"/><linearGradient id="g1" x1="128" y1="0" x2="128" y2="193.5" href="#P"><stop stop-color="#f6f7ff"/><stop offset="1" stop-color="#fff"/></linearGradient></defs><style>.a{fill:url(#g1)}</style><g clip-path="url(#cp1)"><path fill-rule="evenodd" class="a" d="m15.8 176.3q0 0.8-0.6 1.4-0.5 0.5-1.3 0.5-1.2 0-2.2-1.4-0.3-0.3-0.4-0.5-0.6-0.7-1.4-1-0.9-0.3-2-0.3-1.7 0-2.6 0.6-0.9 0.7-0.9 1.9 0 1.7 3.5 2.5 0.9 0.2 1.4 0.3 2.2 0.6 3.2 0.9 1.1 0.4 1.8 0.8 1.3 0.7 1.9 1.9 0.7 1.2 0.7 2.9 0 3.1-2.2 4.9-2.2 1.8-6 1.8-2 0-3.5-0.4-1.5-0.5-2.9-1.5-0.9-0.6-1.5-1.6-0.5-0.9-0.5-1.8 0-1 0.5-1.5 0.6-0.6 1.4-0.6 1.2 0 2.1 1.4 0.4 0.6 0.6 0.9 0.6 0.8 1.6 1.1 0.9 0.4 2.1 0.4 2 0 3-0.7 1.1-0.7 1.1-2 0-1.9-5.3-3.1-0.2 0-0.3 0-4-1-5.5-2.3-1.4-1.4-1.4-4 0-3 2.1-4.6 2.1-1.7 5.8-1.7 1.7 0 3.1 0.4 1.4 0.4 2.6 1.2 0.9 0.6 1.4 1.5 0.6 0.9 0.6 1.7zm7.2 15.3q-0.3 0.8-0.8 1.2-0.5 0.4-1.3 0.4-0.9 0-1.5-0.6-0.6-0.5-0.6-1.3 0-0.3 0.1-0.6 0-0.2 0.2-0.5l5.7-16.2q0.5-1.4 1.1-1.8 0.6-0.4 2.1-0.4 1.4 0 2 0.3 0.6 0.4 1.1 1.8l5.9 16.3q0.1 0.3 0.1 0.5 0.1 0.3 0.1 0.6 0 0.8-0.6 1.3-0.6 0.6-1.5 0.6-0.8 0-1.3-0.4-0.5-0.4-0.8-1.2l-1-3h-8zm4.9-15.4l-2.8 8.9h5.7zm12.3-2.1q0-1.2 0.6-1.8 0.5-0.5 1.6-0.5 1 0 1.6 0.5 0.5 0.6 0.5 1.8v16.8q0 1.1-0.5 1.7-0.5 0.6-1.6 0.6-1.1 0-1.6-0.6-0.6-0.6-0.6-1.7zm10.7 18.8q-1.4 0-2-0.6-0.6-0.7-0.6-2.6v-14.3q0-2 0.6-2.6 0.6-0.7 2-0.7h5.6q4.8 0 7.2 2.6 2.3 2.6 2.3 7.8 0 2.9-0.8 5.1-0.9 2.2-2.6 3.5-1.2 1-2.8 1.4-1.6 0.4-4.5 0.4zm1.6-17.2v13.5h3.5q3 0 4.3-1.6 1.4-1.6 1.4-5.1 0-3.5-1.3-5.1-1.2-1.7-3.9-1.7zm38.4 13.4q1.1 0 1.7 0.5 0.6 0.5 0.6 1.4 0 1-0.6 1.4-0.6 0.5-1.7 0.5h-11q-1.5 0-2.1-0.6-0.5-0.7-0.5-2.6v-14.3q0-2 0.5-2.6 0.6-0.7 2.1-0.7h10.4q1.2 0 1.8 0.4 0.6 0.5 0.6 1.4 0 0.9-0.6 1.3-0.6 0.5-1.8 0.5h-8.8v4.4h7.9q1.2 0 1.8 0.5 0.5 0.4 0.5 1.3 0 0.9-0.6 1.4-0.5 0.4-1.7 0.4h-7.9v5.4zm9.3 1.8q0 1.2-0.5 1.7-0.5 0.6-1.6 0.6-1.1 0-1.6-0.6-0.6-0.6-0.6-1.7v-15.5q0-2 0.6-2.6 0.6-0.7 2-0.7h7.6q3.4 0 5 1.4 1.7 1.5 1.7 4.5 0 1.9-0.8 3.2-0.8 1.3-2.3 1.7 1.1 0.4 1.7 1.3 0.6 0.8 0.8 2.2 0 0.6 0.1 1.6 0 0.9 0.1 1.2 0 0.4 0.2 1.1 0.1 0.7 0.1 1 0 0.9-0.5 1.4-0.6 0.5-1.6 0.5-1.4 0-1.9-0.8-0.6-0.7-0.8-3.9-0.2-2.5-0.8-3.1-0.7-0.6-2.3-0.6h-4.6zm0-15.2v5.5h5.1q1.6 0 2.4-0.7 0.8-0.6 0.8-2.1 0-1.3-0.8-2-0.7-0.7-2.2-0.7zm20.4 15.2q0 1.2-0.5 1.7-0.5 0.6-1.6 0.6-1.1 0-1.6-0.6-0.6-0.5-0.6-1.7v-15.5q0-1.9 0.6-2.6 0.6-0.7 2-0.7h6.7q3.3 0 5 1.7 1.7 1.7 1.7 5 0 3.2-1.7 5-1.6 1.7-4.7 1.7h-5.3zm0-15.2v6h4.2q1.7 0 2.4-0.7 0.8-0.7 0.8-2.3 0-1.4-0.7-2.2-0.8-0.8-2.3-0.8zm37.8 0.6q0 0.9-0.5 1.4-0.5 0.5-1.4 0.5-1.1 0-2.1-1.4-0.3-0.3-0.5-0.5-0.5-0.6-1.4-1-0.8-0.3-2-0.3-1.6 0-2.6 0.7-0.9 0.6-0.9 1.8 0 1.7 3.6 2.5 0.9 0.2 1.3 0.4 2.3 0.5 3.3 0.9 1.1 0.3 1.8 0.7 1.3 0.7 1.9 1.9 0.6 1.2 0.6 2.9 0 3.1-2.2 4.9-2.1 1.8-5.9 1.8-2.1 0-3.5-0.4-1.5-0.4-2.9-1.4-0.9-0.7-1.5-1.6-0.6-1-0.6-1.9 0-0.9 0.6-1.5 0.5-0.6 1.4-0.6 1.1 0 2.1 1.5 0.4 0.5 0.6 0.8 0.6 0.8 1.5 1.2 0.9 0.3 2.2 0.3 2 0 3-0.6 1-0.7 1-2.1 0-1.8-5.2-3-0.2-0.1-0.3-0.1-4.1-0.9-5.5-2.3-1.4-1.4-1.4-4 0-3 2.1-4.6 2-1.7 5.8-1.7 1.7 0 3.1 0.4 1.4 0.4 2.5 1.2 0.9 0.7 1.5 1.5 0.5 0.9 0.5 1.7zm3.2-0.5q-0.3-0.6-0.5-1.1-0.1-0.5-0.1-0.9 0-0.9 0.5-1.5 0.6-0.5 1.5-0.5 0.9 0 1.4 0.4 0.6 0.4 1.3 1.8l3.5 7.1 3.4-7.5q0.4-1 1-1.4 0.6-0.4 1.4-0.4 0.9 0 1.5 0.5 0.6 0.5 0.6 1.2 0 0.4-0.1 0.8-0.2 0.4-0.4 0.9l-5.2 10v5.7q0 1.2-0.6 1.7-0.5 0.6-1.6 0.6-1.1 0-1.6-0.6-0.5-0.5-0.5-1.7v-5.7zm32.7 0.5q0 0.8-0.5 1.3-0.5 0.5-1.4 0.5-1.1 0-2.2-1.3-0.2-0.4-0.4-0.5-0.5-0.7-1.4-1-0.8-0.4-2-0.4-1.7 0-2.6 0.7-0.9 0.7-0.9 1.9 0 1.6 3.6 2.5 0.8 0.2 1.3 0.3 2.2 0.5 3.3 0.9 1 0.3 1.8 0.7 1.3 0.8 1.9 2 0.6 1.1 0.6 2.8 0 3.1-2.2 5-2.2 1.8-6 1.8-2 0-3.5-0.5-1.4-0.4-2.8-1.4-1-0.7-1.5-1.6-0.6-1-0.6-1.8 0-1 0.6-1.6 0.5-0.6 1.4-0.6 1.1 0 2.1 1.5 0.3 0.6 0.6 0.9 0.6 0.7 1.5 1.1 0.9 0.4 2.2 0.4 2 0 3-0.7 1-0.7 1-2 0-1.9-5.3-3.1-0.1 0-0.3-0.1-4-0.9-5.4-2.3-1.5-1.3-1.5-4 0-2.9 2.1-4.6 2.1-1.6 5.9-1.6 1.7 0 3.1 0.4 1.4 0.4 2.5 1.2 0.9 0.6 1.5 1.5 0.5 0.9 0.5 1.7zm4.4-0.6q-1 0-1.6-0.4-0.5-0.5-0.5-1.4 0-0.9 0.6-1.4 0.5-0.4 1.5-0.4h13q1.1 0 1.6 0.4 0.5 0.5 0.5 1.4 0 0.9-0.5 1.4-0.5 0.4-1.6 0.4h-4.3v15.2q0 1.1-0.6 1.7-0.5 0.5-1.6 0.5-1 0-1.6-0.5-0.5-0.6-0.5-1.7v-15.2zm30.6 13.4q1.1 0 1.7 0.4 0.6 0.5 0.6 1.5 0 0.9-0.6 1.4-0.6 0.5-1.7 0.5h-11.1q-1.4 0-2-0.7-0.6-0.7-0.6-2.6v-14.3q0-1.9 0.6-2.6 0.6-0.7 2-0.7h10.5q1.1 0 1.7 0.5 0.6 0.5 0.6 1.4 0 0.8-0.6 1.3-0.6 0.4-1.7 0.4h-8.8v4.5h7.9q1.2 0 1.7 0.4 0.6 0.5 0.6 1.4 0 0.9-0.6 1.3-0.6 0.5-1.7 0.5h-7.9v5.4zm9.3 1.5q0 1.3-0.5 1.9-0.5 0.6-1.5 0.6-1.1 0-1.5-0.6-0.5-0.6-0.5-1.9v-15.6q0-1.9 0.5-2.6 0.6-0.7 2.1-0.7h1.5q1.3 0 1.8 0.5 0.6 0.5 1.1 2.6l3.5 13.1 3.3-12.8q0.5-2.2 1.1-2.8 0.6-0.6 1.7-0.6h1.7q1.5 0 2.1 0.7 0.5 0.7 0.5 2.6v15.6q0 1.3-0.4 1.9-0.5 0.6-1.6 0.6-1 0-1.5-0.6-0.5-0.6-0.5-1.9v-14.5l-3.6 14.2q-0.4 1.6-1 2.2-0.7 0.6-1.8 0.6-1.2 0-1.8-0.6-0.7-0.7-1.1-2.2l-3.6-14.2zm-211.1-36.6h-4.3q-1.7 0-1.7-1.8v-7.9q0-1.7-1.8-1.7h-1.1v9.6q0 0.9-0.4 1.3-0.5 0.5-1.5 0.5h-11.6q-5.1 0-5.1-5.2v-0.6q-0.1-1.8 1.7-1.8 1.6 0 1.6 1.8v0.7q0 1.6 1.8 1.6h10.1v-9.7q0-1.7 1.8-1.7h2.8q5.1 0 5.1 5.3v6.1h6.4v-9.6q0-1.7 1.6-1.7 1.8 0 1.8 1.7v9.6h2.7 4.1v-9.7q0-1.6 1.7-1.6 1.7 0 1.7 1.7v9.6h4v-9.7q0-1.6 1.7-1.6 1.7 0 1.8 1.7l-0.1 9.6h2.7q1.8 0 1.8-1.7v-7.9q0-1.7 1.7-1.7 1.7 0 1.7 1.7v7.8q0 5.3-5.1 5.3h-2.7q-1.7-0.1-1.7-1.7-0.1 1.6-1.8 1.7h-4q-1.7-0.1-1.7-1.7-0.1 1.6-1.7 1.7h-6.8q-1.7-0.1-1.7-1.7-0.1 1.7-1.7 1.7h-3.8q0 0 0 0zm-25.8-12.9q-0.5 0-0.9-0.3-0.4-0.2-0.6-0.6-0.2-0.4-0.2-0.8 0-0.4 0.2-0.9 0.2-0.4 0.6-0.6 0.4-0.2 0.9-0.2 0.4 0 0.8 0.2 0.4 0.2 0.6 0.6 0.2 0.5 0.2 0.9 0 0.4-0.2 0.8-0.2 0.4-0.6 0.6-0.4 0.3-0.8 0.3zm0 4.3q-0.5 0-0.9-0.3-0.4-0.2-0.6-0.6-0.2-0.4-0.2-0.8 0-0.4 0.2-0.9 0.2-0.4 0.6-0.6 0.4-0.2 0.9-0.2 0.4 0 0.8 0.2 0.4 0.2 0.6 0.6 0.2 0.4 0.2 0.9 0 0.4-0.2 0.8-0.2 0.4-0.6 0.6-0.4 0.3-0.8 0.3zm31.2 13.2q-0.5 0-0.9-0.3-0.4-0.2-0.6-0.6-0.2-0.4-0.2-0.8 0-0.5 0.2-0.9 0.2-0.4 0.6-0.6 0.4-0.2 0.9-0.2 0.4 0 0.8 0.2 0.4 0.2 0.6 0.6 0.3 0.4 0.3 0.9 0 0.4-0.3 0.8-0.2 0.4-0.6 0.6-0.4 0.3-0.8 0.3zm35.2-8.1q0 0 0.1 0h12.9v-3.3q0-4.7-3-4.6h-6.3q-1.7 0-1.7-1.7 0.1-1.7 1.7-1.7h6.3q6.4 0 6.4 7.9v3.4h2.3q0.1 0 0.1 0h2.8q-0.1-0.4-0.1-0.8-0.1-0.5-0.1-1v-4.4q0-5.2 5.2-5.2h2.2q5.2 0 5.2 5.2v6.2h2.6q0 0 0 0h2.4v-14.1q0-1.6 1.7-1.6 1.7 0 1.7 1.7v15.7q0 1.8-1.7 1.8h-4.3q0 0 0 0h-36.4q0 0 0 0h-0.8q-5.2 0-5.2-5.2v-12.3q0-1.8 1.7-1.8 1.7 0.1 1.7 1.8v12.4q0 1.6 1.8 1.6zm24.8-1.7q0 1.7 1.7 1.7h4v-6.2q0-1.7-1.7-1.7h-2.3q-1.7 0-1.7 1.6zm23.1-14q1.7 0 1.7 1.7v15.8q0 1.7-1.7 1.7-1.7 0-1.7-1.7v-14.1q-1.7 0-1.7-1.6 0-1.8 1.7-1.8zm15.9 19.2q-5.1 0-5.1-5.2v-0.3q0-1.7 1.7-1.7 1.7 0 1.7 1.7v0.3q0 1.8 1.8 1.8h7.1v-6.2q0-1.8-1.8-1.8h-3q-1.7 0-1.7-1.7 0-1.7 1.7-1.7h3.1q5.1 0 5.1 5.2v6.2h1.7q0 0 0 0h3.8v-9.7q0-1.7 1.7-1.7 1.7 0 1.7 1.7v11.4q0 1.7-1.7 1.7h-5.4q0 0 0 0zm20.2-17.1q0.6 0 0.6 0.6 0 0.5-0.6 0.5h-5.2q-0.5 0-0.5-0.5 0-0.6 0.5-0.6h0.6q-0.1-0.3-0.1-0.6v-1.4q0-1.7 1.7-1.7h1.9q0.6-0.1 0.6 0.5 0 0.6-0.6 0.6h-1.9q-0.5 0-0.5 0.6v1.4q0 0.6 0.5 0.6zm8.2 17.1h-0.9q0 0 0 0h-0.1q-0.1 0-0.1 0-4.9-0.1-4.9-5.1v-12.3q0-1.8 1.7-1.8 1.6 0 1.7 1.7v12.4q0 1.7 1.7 1.7h4v-9.7q0-1.7 1.7-1.7 1.7 0 1.7 1.7v9.7h4v-9.7q0-1.7 1.7-1.7 1.8 0 1.8 1.7v9.7h2.7q1.7 0 1.7-1.8v-7.9q0-1.7 1.7-1.7 1.7 0 1.7 1.7v7.9q0 5.2-5.1 5.2h-2.7q-1.7 0-1.7-1.7-0.1 1.7-1.8 1.7h-4q-1.7 0-1.6-1.7-0.1 1.7-1.8 1.7h-3.1q0 0 0 0zm32.9 0q0.2 1.2 1.6 1.2h0.2q1.7 0 1.7 1.7 0 1.7-1.7 1.7h-0.1q-5.2 0-5.2-5.1v-1.2q0-1.7 1.7-1.7h10.8v-3.4q0-4.6-3-4.6h-6.3q-1.6 0-1.6-1.7 0-1.7 1.6-1.7h6.3q6.4 0 6.4 8v3.4h1.6q0.1 0 0.2 0h2.6v-6.3q0-5.1 5.1-5.1h2.3q5.1 0 5.1 5.1v4.5q0 5.2-5.1 5.2h-4q-1.6-0.1-1.6-1.7-0.2 1.7-1.8 1.7zm10.1 4.4q-0.4-0.2-0.6-0.7-0.3-0.4-0.3-0.8 0-0.4 0.3-0.8 0.2-0.5 0.6-0.7 0.4-0.2 0.8-0.2 0.5 0 0.9 0.2 0.4 0.2 0.6 0.7 0.2 0.4 0.2 0.8 0 0.4-0.2 0.8-0.2 0.5-0.6 0.7-0.5 0.2-0.9 0.2-0.4 0-0.8-0.2zm15.8-14.1q0-1.7-1.7-1.7h-2.3q-1.7 0-1.7 1.7v6.3h4q1.7 0 1.7-1.8zm13.2 9.7h-0.8q-5.2 0-5.2-5.1v-12.3q0-1.8 1.7-1.8 1.7 0 1.7 1.8v12.4q0 1.6 1.8 1.6h3.8v-9.7q0-1.7 1.7-1.7 1.7 0 1.7 1.7v11.4q0 1.7-1.7 1.7h-4.7q0 0 0 0zm4.5-15.8q-0.5 0-0.8-0.3-0.4-0.2-0.7-0.6-0.2-0.4-0.2-0.8 0-0.4 0.2-0.9 0.3-0.4 0.7-0.6 0.4-0.2 0.8-0.2 0.4 0 0.8 0.2 0.4 0.2 0.7 0.6 0.2 0.5 0.2 0.9 0 0.4-0.2 0.8-0.2 0.4-0.7 0.6-0.3 0.3-0.8 0.3zm10 15.8q-0.3 4.6-5.1 4.6h-1.3q-1.7 0-1.7-1.6v-0.1q0-1.7 1.7-1.7h1.3q1.7 0 1.7-1.7v-12.5q0-1.7 1.7-1.7 1.7 0 1.7 1.7v9.6q0.8 0 1.5 0 0.1 0 0.1 0h3.7v-9.7q0-1.6 1.7-1.6 1.7 0 1.7 1.6v11.4q0 1.7-1.7 1.7zm6.3 4.6q-0.5 0-0.9-0.2-0.4-0.2-0.6-0.6-0.2-0.4-0.2-0.8 0-0.5 0.2-0.9 0.2-0.4 0.6-0.6 0.4-0.2 0.9-0.2 0.4 0 0.8 0.2 0.4 0.2 0.6 0.6 0.2 0.4 0.2 0.9 0 0.4-0.2 0.8-0.2 0.4-0.6 0.6-0.4 0.2-0.8 0.2zm-140.1-50.8c-5.8-0.1-10.5-4.8-10.7-10.6-0.4-9.7-7.7-17-17.5-17.3-5.9-0.2-10.6-4.5-10.9-10.4-0.3-4.6 2.7-10.4 9.1-11.5 1.8-0.3 3.6-0.4 5.4-0.7 7.4-1.7 11.9-6.4 13.7-13.7 0.2-0.9 0.3-1.8 0.3-2.7 0.2-5.8 3.9-10.1 9.7-11.1 4.7-0.7 9.9 2.6 11.6 7.4 2.5 6.6-2.6 14.3-10.2 14.6-5.1 0.1-9.7 1.9-13.1 5.9-3.4 3.8-5.1 8.3-4.4 13.3 0.9 5.7 4 10 9.1 12.8 2.5 1.3 5.3 2 8.2 2.1 5.3 0.3 9.3 3.5 10.5 8.4 1.8 6.9-3.6 13.7-10.8 13.5zm46.7-67.3c-0.3-10-7.6-17.4-17.3-17.8-3.6-0.1-6.7-1.4-8.9-4.4-2.9-3.8-3-8.8-0.3-12.8 2.6-3.9 7.6-5.6 12.2-4.2 4.5 1.4 7.6 5.5 7.7 10.2 0.2 8.2 5.9 15 14.1 16.7 1.2 0.3 2.5 0.4 3.8 0.5 7 0.5 10.9 6.2 10.6 11.6-0.2 5.9-4.7 10.2-10.7 10.6-1.4 0.1-2.8 0.2-4.1 0.5-7.9 1.9-13.4 8.6-13.6 16.8-0.1 5-4 10.6-11 10.6-5.8 0-10.8-4.3-10.8-10.9-0.1-6.5 4.9-10.8 10.6-11q3.5-0.1 6.7-1.4c6.3-2.5 9.7-7.4 11-13.9 0.1-0.5 0-1 0-1.1zm-46.2-18.5c-8.6 0.2-15.6 6.4-17.1 15.2-0.2 1.1-0.2 2.2-0.3 3.3-0.5 5.7-5.5 10.2-11.3 10.1-5.7-0.2-10.6-5.2-10.6-11 0-5.8 4.7-10.8 10.6-11 8.6-0.2 15.3-5.9 17-14.4q0.3-1.7 0.4-3.5c0.3-5.9 5.3-10.7 11.2-10.7 5.7 0 10.6 4.7 10.8 10.5 0.2 2.5 0.6 4.9 1.6 7.2 2.9 6.7 8.2 10.4 15.4 10.8 6 0.4 10.7 4.4 11.1 10.3 0.3 4.4-2.5 10.1-8.8 11.4-6.8 1.3-12.9-3.6-13.1-10.5-0.3-8.9-5.9-15.6-14.6-17.4-0.7-0.2-1.5-0.2-2.3-0.3zm29 86.5c-6.1 0-10.7-4.7-10.9-11-0.3-8.9-6.7-16.1-15.4-17.3-0.8-0.1-1.6-0.1-2.3-0.1-5-0.3-10.3-4.3-10.3-11.1-0.1-5.8 4.8-10.6 10.7-10.8 5.7-0.2 10.7 4.3 11.1 10.1 0.2 2.6 0.6 5.1 1.6 7.4 2.6 6.3 7.4 9.9 14 10.8 6.6 0.8 13.7-3.5 16.7-9.5 1.2-2.6 2-5.4 2.1-8.3 0.1-5.6 4.4-10.1 10-10.6 4.4-0.4 10 2.3 11.5 8.4 1.7 6.6-3.3 13.2-10.2 13.5-9 0.3-15.8 6.4-17.2 15.3-0.1 0.9-0.2 1.8-0.3 2.8-0.4 5.9-5.2 10.4-11.1 10.4z"/></g></svg>